<svg xmlns="http://www.w3.org/2000/svg" viewBox="430 -5 175 180" width="175" height="180">
  <g>
    <path
      d="m475.894 301.703-.128 5.388c-20.965.056-30.15 13.177-30.243 23.83-.07 8.166 5.538 16.813 14.85 16.895 7.853.071 11.783-6.132 11.783-6.132s3.285 6.307 11.993 6.384c6.209.053 14.559-5.165 14.665-17.254.1-11.364-8.096-23.822-22.92-29.11m-4.032 73.744c-28.451-.249-51.895-21.062-51.658-47.9.116-13.389 7.013-27.078 19.317-36.108l-3.196-15.443c60.022-17.32 88.246 26.313 88.018 52.354-.232 26.543-23.525 47.35-52.481 47.097"
      style="fill:#ef2d38;fill-opacity:1;fill-rule:nonzero;stroke:none"
      transform="matrix(1.33333 0 0 -1.33333 -115.506 500.6)"
    />
    <path
      d="m0 0-.486 20.579c-9.055-3.232-20.581-3.791-34.203.211l-2.17-10.474C-27.501 3.451-15.016-.719 0 0"
      style="fill:#831418;fill-opacity:1;fill-rule:nonzero;stroke:none"
      transform="matrix(1.33333 0 0 -1.33333 519.667 125.768)"
    />
  </g>
</svg>
